<svg width="91" height="91" viewBox="0 0 91 91" fill="none" xmlns="http://www.w3.org/2000/svg">
<path d="M0.890155 13.9497L18.8919 31.9521L6.04899 39.3702C5.04543 39.9498 4.46156 41.0515 4.54502 42.2073C4.62847 43.3635 5.36492 44.3701 6.44128 44.7992L63.7102 67.6439C64.8329 68.0923 66.1148 67.8282 66.9698 66.9736C67.8247 66.1183 68.0888 64.8367 67.6407 63.714L44.7997 6.43838C44.3702 5.36202 43.3636 4.62525 42.2075 4.5418C41.0513 4.45774 39.9494 5.04191 39.3701 6.04578L31.9525 18.8887L13.952 0.886334C13.3849 0.318921 12.615 2.77175e-05 11.813 2.77876e-05C11.0105 2.78578e-05 10.2411 0.318921 9.67401 0.886335L0.889849 9.67171C-0.29128 10.8531 -0.29128 12.7683 0.890155 13.9497Z" fill="#5E7999"/>
<path d="M77.1754 81.4572C78.3569 82.6377 80.2717 82.638 81.4538 81.4572C82.6349 80.2757 82.6349 78.3603 81.4538 77.1789L74.7322 70.4573C74.1416 69.8667 73.3677 69.5713 72.5931 69.5713C71.8192 69.5713 71.045 69.8667 70.4544 70.4573C69.273 71.6387 69.273 73.5538 70.4544 74.7353L77.1754 81.4572Z" fill="#5E7999"/>
<path d="M74.8975 60.5444C74.8975 62.2146 76.252 63.5694 77.9229 63.5694L87.4285 63.5694C89.0991 63.5694 90.4539 62.2149 90.4539 60.5444C90.4539 58.8738 89.0994 57.519 87.4285 57.519L77.9229 57.519C76.252 57.5193 74.8975 58.8738 74.8975 60.5444Z" fill="#5E7999"/>
<path d="M76.1237 51.208L82.8462 44.4858C84.0273 43.3044 84.0273 41.3889 82.8462 40.2078C82.2553 39.6172 81.4811 39.3218 80.7072 39.3218C79.9333 39.3218 79.1588 39.6172 78.5682 40.2078L71.846 46.9297C70.6646 48.1111 70.6646 50.0266 71.846 51.208C73.0271 52.3885 74.9417 52.3888 76.1237 51.208Z" fill="#5E7999"/>
<path d="M60.5421 74.901C58.8715 74.901 57.5168 76.2554 57.5168 77.9263L57.5168 87.4329C57.5168 89.1035 58.8712 90.4579 60.5421 90.4579C62.2124 90.4579 63.5671 89.1038 63.5671 87.4329L63.5671 77.926C63.5671 76.2554 62.2127 74.901 60.5421 74.901Z" fill="#5E7999"/>
<path d="M49.0683 70.9635C48.2938 70.9635 47.5198 71.2589 46.9293 71.8495L40.208 78.5711C39.0265 79.7525 39.0265 81.6679 40.208 82.8494C41.3894 84.0302 43.3049 84.0302 44.486 82.8494L51.2073 76.1275C52.3887 74.946 52.3887 73.0306 51.2073 71.8495C50.6164 71.2589 49.8425 70.9635 49.0683 70.9635Z" fill="#5E7999"/>
</svg>
