<svg width="40" height="40" viewBox="0 0 40 40" fill="none" xmlns="http://www.w3.org/2000/svg">
<path d="M27.3035 21.875H28.5445V23.125H27.3035V21.875Z" fill="#D0D8D9"/>
<path d="M24.8214 13.125C25.5068 13.125 26.0625 12.5654 26.0625 11.875C26.0625 11.1846 25.5068 10.625 24.8214 10.625C24.136 10.625 23.5803 11.1846 23.5803 11.875C23.5803 12.5654 24.136 13.125 24.8214 13.125Z" fill="#D0D8D9"/>
<path d="M27.3035 19.375H28.5445V20.625H27.3035V19.375Z" fill="#D0D8D9"/>
<path d="M32.8884 7.5H4.34378C3.85023 7.50056 3.37704 7.69828 3.02804 8.04979C2.67904 8.4013 2.48273 8.87789 2.48218 9.375V19.6009C2.48265 20.0381 2.65531 20.4573 2.96227 20.7665C3.26923 21.0756 3.68543 21.2495 4.11954 21.25H9.53301C9.96701 21.2494 10.383 21.0754 10.6899 20.7662C10.9967 20.4571 11.1692 20.038 11.1697 19.6009V19.1491C11.1705 18.3806 11.474 17.6437 12.0136 17.1002C12.5531 16.5567 13.2847 16.2509 14.0478 16.25H20.7027C21.4657 16.251 22.1972 16.5568 22.7366 17.1003C23.2761 17.6438 23.5795 18.3806 23.5804 19.1491V28.75H34.75V9.375C34.7495 8.87789 34.5532 8.4013 34.2042 8.04979C33.8552 7.69828 33.382 7.50056 32.8884 7.5ZM16.7545 15C16.1408 15 15.541 14.8167 15.0307 14.4733C14.5205 14.13 14.1228 13.6419 13.888 13.0709C13.6532 12.4999 13.5917 11.8715 13.7114 11.2653C13.8312 10.6592 14.1267 10.1023 14.5606 9.66529C14.9945 9.22825 15.5473 8.93062 16.1492 8.81005C16.7511 8.68947 17.3749 8.75135 17.9418 8.98788C18.5088 9.2244 18.9934 9.62494 19.3343 10.1388C19.6752 10.6527 19.8572 11.2569 19.8572 11.875C19.8562 12.7035 19.529 13.4978 18.9474 14.0836C18.3657 14.6695 17.5771 14.999 16.7545 15ZM22.3393 11.875C22.3393 11.3805 22.4849 10.8972 22.7576 10.4861C23.0304 10.075 23.418 9.75452 23.8716 9.5653C24.3251 9.37608 24.8242 9.32657 25.3057 9.42304C25.7872 9.5195 26.2295 9.7576 26.5766 10.1072C26.9237 10.4569 27.1601 10.9023 27.2559 11.3873C27.3517 11.8722 27.3025 12.3749 27.1147 12.8317C26.9268 13.2885 26.6087 13.679 26.2005 13.9537C25.7923 14.2284 25.3124 14.375 24.8215 14.375C24.1634 14.3743 23.5324 14.1107 23.0671 13.642C22.6018 13.1733 22.34 12.5378 22.3393 11.875ZM29.7857 23.75C29.7857 23.9158 29.7204 24.0747 29.604 24.1919C29.4876 24.3092 29.3298 24.375 29.1652 24.375H26.6831C26.5185 24.375 26.3607 24.3092 26.2443 24.1919C26.1279 24.0747 26.0625 23.9158 26.0625 23.75V18.75C26.0625 18.5842 26.1279 18.4253 26.2443 18.3081C26.3607 18.1908 26.5185 18.125 26.6831 18.125H29.1652C29.3298 18.125 29.4876 18.1908 29.604 18.3081C29.7204 18.4253 29.7857 18.5842 29.7857 18.75V23.75Z" fill="#D0D8D9"/>
<path d="M16.7544 13.75C17.7826 13.75 18.616 12.9105 18.616 11.875C18.616 10.8395 17.7826 10 16.7544 10C15.7263 10 14.8928 10.8395 14.8928 11.875C14.8928 12.9105 15.7263 13.75 16.7544 13.75Z" fill="#D0D8D9"/>
<path d="M26.6831 5H30.4063V6.25H26.6831V5Z" fill="#D0D8D9"/>
<path d="M29.4022 2.5H27.6872L27.0667 3.75H30.0227L29.4022 2.5Z" fill="#D0D8D9"/>
<path d="M9.30811 5H25.442V6.25H9.30811V5Z" fill="#D0D8D9"/>
<path d="M2.48218 30V33.125C2.48273 33.6221 2.67904 34.0987 3.02804 34.4502C3.37704 34.8017 3.85023 34.9994 4.34378 35H32.8884C33.382 34.9994 33.8552 34.8017 34.2042 34.4502C34.5532 34.0987 34.7495 33.6221 34.75 33.125V30H2.48218Z" fill="#D0D8D9"/>
<path d="M7.44653 22.5H8.68761V23.75H7.44653V22.5Z" fill="#D0D8D9"/>
<path d="M4.34368 36.25H3.72314V36.875C3.72331 37.0407 3.78874 37.1996 3.90508 37.3168C4.02141 37.4339 4.17915 37.4998 4.34368 37.5H32.8883C33.0528 37.4998 33.2106 37.4339 33.3269 37.3168C33.4433 37.1996 33.5087 37.0407 33.5089 36.875V36.25H4.34368Z" fill="#D0D8D9"/>
<path d="M36.6115 11.25H35.991V17.5H36.6115C36.776 17.4998 36.9338 17.4339 37.0501 17.3168C37.1664 17.1996 37.2319 17.0407 37.232 16.875V11.875C37.2319 11.7093 37.1664 11.5504 37.0501 11.4332C36.9338 11.3161 36.776 11.2502 36.6115 11.25Z" fill="#D0D8D9"/>
<path d="M6.20532 22.5V26.875C6.20532 27.0408 6.2707 27.1997 6.38707 27.3169C6.50345 27.4342 6.66128 27.5 6.82586 27.5C6.99043 27.5 7.14827 27.4342 7.26464 27.3169C7.38101 27.1997 7.44639 27.0408 7.44639 26.875V22.5H6.20532Z" fill="#D0D8D9"/>
<path d="M9.30797 7.5V3.125C9.30797 2.95924 9.24259 2.80027 9.12622 2.68306C9.00984 2.56585 8.85201 2.5 8.68743 2.5C8.52285 2.5 8.36502 2.56585 8.24865 2.68306C8.13227 2.80027 8.06689 2.95924 8.06689 3.125V7.5H9.30797Z" fill="#D0D8D9"/>
</svg>
